<?xml version="1.0" encoding="UTF-8" standalone="no"?>
<!DOCTYPE svg PUBLIC "-//W3C//DTD SVG 1.1//EN" "http://www.w3.org/Graphics/SVG/1.1/DTD/svg11.dtd">
<!-- Created with Vectornator (http://vectornator.io/) -->
<svg height="100%" stroke-miterlimit="10" style="fill-rule:nonzero;clip-rule:evenodd;stroke-linecap:round;stroke-linejoin:round;" version="1.1" viewBox="0 0 384 512" width="100%" xml:space="preserve" xmlns="http://www.w3.org/2000/svg" xmlns:vectornator="http://vectornator.io" xmlns:xlink="http://www.w3.org/1999/xlink">
<defs/>
<g id="Untitled" vectornator:layerName="Untitled">
<path d="M14 95.8C14 42.9 56.9 0 109.8 0L274.2 0C327.1 0 370 42.9 370 95.8C370 129.3 352.8 158.8 326.7 175.9C352.8 193 370 222.5 370 256C370 308.9 327.1 351.8 274.2 351.8L272.1 351.8C247.3 351.8 224.7 342.4 207.7 326.9L207.7 415.2C207.7 468.8 163.7 512 110.3 512C57.5 512 14 469.2 14 416.2C14 382.7 31.2 353.2 57.2 336.1C31.2 319 14 289.5 14 256C14 222.5 31.2 193 57.2 175.9C31.2 158.8 14 129.3 14 95.8ZM176.3 191.6L109.8 191.6C74.2 191.6 45.4 220.4 45.4 256C45.4 291.4 74 320.2 109.4 320.4C109.5 320.4 109.7 320.4 109.8 320.4L176.3 320.4L176.3 191.6ZM207.7 256C207.7 291.6 236.5 320.4 272.1 320.4L274.2 320.4C309.7 320.4 338.6 291.6 338.6 256C338.6 220.4 309.7 191.6 274.2 191.6L272.1 191.6C236.5 191.6 207.7 220.4 207.7 256ZM109.8 351.8C109.7 351.8 109.5 351.8 109.4 351.8C74 352 45.4 380.8 45.4 416.2C45.4 451.7 74.6 480.6 110.3 480.6C146.6 480.6 176.3 451.2 176.3 415.2L176.3 351.8L109.8 351.8ZM109.8 31.4C74.2 31.4 45.4 60.2 45.4 95.8C45.4 131.4 74.2 160.2 109.8 160.2L176.3 160.2L176.3 31.4L109.8 31.4ZM207.7 160.2L274.2 160.2C309.7 160.2 338.6 131.4 338.6 95.8C338.6 60.2 309.7 31.4 274.2 31.4L207.7 31.4L207.7 160.2Z" fill="#edf2f4" fill-rule="nonzero" opacity="1" stroke="none" vectornator:layerName="path"/>
</g>
</svg>
