<?xml version="1.0" encoding="UTF-8" standalone="no"?>
<!DOCTYPE svg PUBLIC "-//W3C//DTD SVG 1.1//EN" "http://www.w3.org/Graphics/SVG/1.1/DTD/svg11.dtd">
<!-- Created with Vectornator (http://vectornator.io/) -->
<svg height="100%" stroke-miterlimit="10" style="fill-rule:nonzero;clip-rule:evenodd;stroke-linecap:round;stroke-linejoin:round;" version="1.1" viewBox="0 0 512 512" width="100%" xml:space="preserve" xmlns="http://www.w3.org/2000/svg" xmlns:vectornator="http://vectornator.io" xmlns:xlink="http://www.w3.org/1999/xlink">
<defs/>
<g id="Layer-1" vectornator:layerName="Layer 1">
<path d="M105.191 181.4C93.5274 176.541 88.5229 210.973 87.4801 216.822C83.0724 241.543 90.9864 263.03 120.218 260.025C148.493 257.118 163.227 229.573 171.203 205.283C173.059 199.632 174.072 193.722 174.96 187.841C175.581 183.725 177.129 174.526 173.082 175.497C164.215 177.625 156.12 196.613 152.956 202.6C148.974 210.133 145.213 217.78 141.417 225.409C126.094 256.206 112.902 289.963 94.457 319.061C85.6024 333.03 61.8264 359.09 41.0566 350.189C35.8303 347.949 43.8105 338.99 46.6918 334.088C51.1697 326.47 55.302 318.585 60.6457 311.547C74.7878 292.921 81.0256 287.809 101.434 277.736C108.429 274.283 134.004 261.96 143.832 266.734C152.5 270.944 125.003 320.89 158.86 302.423C164.44 299.38 169.143 294.862 173.618 290.348C179.383 284.532 184.614 278.172 189.451 271.564C195.531 263.256 198.569 252.966 204.746 244.73C206.381 242.55 202.547 249.717 201.526 252.243C199.148 258.126 196.543 263.93 194.549 269.954C193.029 274.548 185.301 295.024 190.524 302.423C195.68 309.727 209.662 294.839 209.845 294.642C220.728 282.912 226.083 262.833 238.021 252.78C238.913 252.029 237.86 255.107 237.753 256.268C237.323 260.921 236.411 265.549 236.411 270.222C236.411 284.79 236.912 310.776 259.488 306.449C297.663 299.132 320.034 243.21 325.769 210.65C327.166 202.721 331.458 191.915 325.501 186.499C319.019 180.606 303.138 197.9 294.373 209.308C275.39 234.017 261.32 262.777 253.048 292.763C251.229 299.358 249.631 306.075 249.023 312.889C248.584 317.805 248.984 325.595 255.732 326.574C275.338 329.42 299.236 302.179 309.4 291.153C324.703 274.554 336.998 249.774 355.287 235.874C356.429 235.007 355.41 238.788 355.019 240.168C353.691 244.85 352.043 249.437 350.725 254.122C348.822 260.889 346.514 267.582 345.358 274.516C345.257 275.125 340.089 295.354 351.262 292.763C373.591 287.585 401.36 242.15 411.908 224.335C415.192 218.788 418.213 213.089 421.3 207.43C421.97 206.201 421.891 203.121 423.178 203.673C425.037 204.47 417.437 237.968 432.034 230.776C452.669 220.607 454.399 191.505 447.866 172.813C436.75 141.01 411.022 161.358 396.344 177.644C370.874 205.903 350.805 238.602 329.526 269.954C317.213 288.095 304.08 310.519 286.055 324.428C244.164 356.751 184.934 346.247 136.587 346.432C112.962 346.522 89.2904 348.532 66.2809 353.945C65.8369 354.05 67.1938 353.833 67.6226 353.677C73.3709 351.594 79.2787 349.87 84.7966 347.237C96.9299 341.447 108.748 335.006 120.486 328.453C137.914 318.723 154.96 308.325 172.277 298.398C227.715 266.62 283.793 235.965 339.992 205.551" fill="none" opacity="1" stroke="#edf2f4" stroke-linecap="round" stroke-linejoin="round" stroke-width="10" vectornator:layerName="Curve 1"/>
</g>
</svg>
