<?xml version="1.0" encoding="UTF-8" standalone="no"?>
<!DOCTYPE svg PUBLIC "-//W3C//DTD SVG 1.1//EN" "http://www.w3.org/Graphics/SVG/1.1/DTD/svg11.dtd">
<!-- Created with Vectornator (http://vectornator.io/) -->
<svg height="100%" stroke-miterlimit="10" style="fill-rule:nonzero;clip-rule:evenodd;stroke-linecap:round;stroke-linejoin:round;" version="1.1" viewBox="0 0 448 512" width="100%" xml:space="preserve" xmlns="http://www.w3.org/2000/svg" xmlns:vectornator="http://vectornator.io" xmlns:xlink="http://www.w3.org/1999/xlink">
<defs/>
<g id="Untitled" vectornator:layerName="Untitled">
<path d="M0 32L0 480L448 480L448 32L0 32ZM243.8 381.4C243.8 425 218.2 444.9 180.9 444.9C147.2 444.9 127.7 427.5 117.7 406.4L152 385.7C158.6 397.4 164.6 407.3 179.1 407.3C192.9 407.3 201.7 401.9 201.7 380.8L201.7 237.7L243.8 237.7C243.8 237.7 243.8 381.4 243.8 381.4ZM343.4 444.9C304.3 444.9 279 426.3 266.7 401.9L301 382.1C310 396.8 321.8 407.7 342.5 407.7C359.9 407.7 371.1 399 371.1 386.9C371.1 372.5 359.7 367.4 340.4 358.9L329.9 354.4C299.5 341.5 279.4 325.2 279.4 290.9C279.4 259.3 303.5 235.3 341 235.3C367.8 235.3 387 244.6 400.8 269L368 290C360.8 277.1 353 272 340.9 272C328.6 272 320.8 279.8 320.8 290C320.8 302.6 328.6 307.7 346.7 315.6L357.2 320.1C393 335.4 413.1 351.1 413.1 386.3C413.1 424.1 383.3 444.9 343.4 444.9Z" fill="#edf2f4" fill-rule="nonzero" opacity="1" stroke="none" vectornator:layerName="path"/>
</g>
</svg>
